<?xml version="1.0" encoding="UTF-8" standalone="no"?>
<!-- Created with Inkscape (http://www.inkscape.org/) -->

<svg
   xmlns:dc="http://purl.org/dc/elements/1.1/"
   xmlns:cc="http://creativecommons.org/ns#"
   xmlns:rdf="http://www.w3.org/1999/02/22-rdf-syntax-ns#"
   xmlns:svg="http://www.w3.org/2000/svg"
   xmlns="http://www.w3.org/2000/svg"
   xmlns:sodipodi="http://sodipodi.sourceforge.net/DTD/sodipodi-0.dtd"
   xmlns:inkscape="http://www.inkscape.org/namespaces/inkscape"
   version="1.1"
   width="100"
   height="80"
   id="svg3594"
   inkscape:version="0.91 r13725"
   sodipodi:docname="Motorkontrollleuchte.svg">
  <metadata
     id="metadata7">
    <rdf:RDF>
      <cc:Work
         rdf:about="">
        <dc:format>image/svg+xml</dc:format>
        <dc:type
           rdf:resource="http://purl.org/dc/dcmitype/StillImage" />
      </cc:Work>
    </rdf:RDF>
  </metadata>
  <sodipodi:namedview
     pagecolor="#ffffff"
     bordercolor="#666666"
     borderopacity="1"
     objecttolerance="10"
     gridtolerance="10"
     guidetolerance="10"
     inkscape:pageopacity="0"
     inkscape:pageshadow="2"
     inkscape:window-width="1920"
     inkscape:window-height="1018"
     id="namedview5"
     showgrid="false"
     inkscape:zoom="5.9"
     inkscape:cx="37.626116"
     inkscape:cy="36.077103"
     inkscape:window-x="-8"
     inkscape:window-y="-8"
     inkscape:window-maximized="1"
     inkscape:current-layer="svg3594" />
  <defs
     id="defs3597">
    <clipPath
       clipPathUnits="userSpaceOnUse"
       id="clipPath1980">
      <path
         inkscape:connector-curvature="0"
         d="m 195.591,199.793 22.677,0 0,18.359 -22.677,0 0,-18.359 z"
         id="path1982" />
    </clipPath>
  </defs>
  <g
     transform="matrix(5.3551721,0,0,-5.3551721,-1057.9348,1162.7097)"
     id="g1976">
    <g
       id="g1978"
       clip-path="url(#clipPath1980)">
      <g
         id="g1984"
         transform="translate(214.5361,212.3531)">
        <path
           inkscape:connector-curvature="0"
           d="m 0,0 c -0.045,0.236 -0.251,0.408 -0.492,0.408 l -1.12,0.005 c -0.219,0 -0.412,-0.141 -0.478,-0.349 0,0 -0.372,-1.16 -0.525,-1.635 l -0.474,0 c -0.135,0.489 -0.445,1.615 -0.445,1.615 -0.061,0.218 -0.259,0.369 -0.485,0.369 l -0.722,0 0,0.552 c 0,0.278 -0.224,0.502 -0.502,0.502 l -1.837,0 0,0.559 1.837,0 0,0.803 -6.757,0 0,-0.803 2.049,0 0,-0.559 -2.049,0 c -0.277,0 -0.502,-0.224 -0.502,-0.502 l 0,-0.552 -1.186,0 c -0.278,0 -0.503,-0.225 -0.503,-0.503 l 0,-2.326 -0.43,0 0,2.326 -1.005,0 0,-5.657 1.005,0 0,2.326 0.43,0 0,-2.326 c 0,-0.278 0.225,-0.502 0.503,-0.502 l 1.479,0 c 0.243,-0.326 1.327,-1.783 1.327,-1.783 0.095,-0.127 0.244,-0.202 0.403,-0.202 l 6.46,0 c 0.226,0 0.423,0.15 0.484,0.366 0,0 0.317,1.128 0.454,1.614 l 0.483,0 c 0.149,-0.477 0.506,-1.628 0.506,-1.628 0.065,-0.21 0.26,-0.354 0.481,-0.354 l 1.14,0.002 c 0.242,0 0.451,0.174 0.495,0.413 0.203,1.135 0.311,2.465 0.311,3.848 C 0.335,-2.525 0.219,-1.151 0,0 M -0.914,-7.229 C -1.07,-7.23 -1.098,-7.23 -1.242,-7.23 c -0.149,0.478 -0.505,1.627 -0.505,1.627 -0.066,0.21 -0.261,0.354 -0.48,0.354 l -1.234,0 c -0.226,0 -0.423,-0.15 -0.485,-0.367 0,0 -0.316,-1.125 -0.453,-1.612 l -5.828,0 c -0.243,0.326 -1.326,1.78 -1.326,1.78 -0.095,0.128 -0.246,0.203 -0.405,0.203 l -1.228,0 0,4.653 1.186,0 c 0.277,0 0.503,0.225 0.503,0.502 l 0,0.552 5.751,0 0,-0.552 c 0,-0.277 0.225,-0.502 0.503,-0.502 l 0.841,0 c 0.135,-0.49 0.447,-1.616 0.447,-1.616 0.059,-0.217 0.258,-0.368 0.483,-0.368 l 1.225,0 c 0.218,0 0.412,0.141 0.478,0.349 0,0 0.371,1.158 0.523,1.633 0.138,0 0.164,0 0.313,-0.001 0.163,-1.008 0.263,-2.149 0.263,-3.378 0,-1.167 -0.093,-2.269 -0.244,-3.256"
           style="fill:#f7ae14;fill-opacity:1;fill-rule:nonzero;stroke:none"
           id="path1986" />
      </g>
    </g>
  </g>
</svg>
